<svg fill="none" height="46" viewBox="0 0 64 46" width="64" xmlns="http://www.w3.org/2000/svg" xmlns:xlink="http://www.w3.org/1999/xlink"><clipPath id="a"><path d="m0 0h63.9625v46h-63.9625z"/></clipPath><g clip-path="url(#a)"><path d="m63.9036 6.926c-.0098-.07848-.0196-.15697-.0294-.23545-.0393-.24525-.0785-.4807-.1374-.71614-.0098-.04905-.0196-.0981-.0294-.14715-.0687-.27469-.157-.53957-.2649-.80444-.0294-.06867-.049-.12753-.0785-.1962-.0883-.21583-.1863-.41203-.2943-.61805-.0294-.05886-.0588-.12753-.0981-.18639-.1373-.24525-.2845-.4807-.4414-.70633-.0294-.03924-.0589-.07849-.0883-.11773-.0883-.11772-.1766-.24525-.2747-.35316-.0491-.05886-.0981-.10792-.1471-.16678-.0687-.07848-.1374-.14715-.2061-.22563-.1373-.14715-.2746-.2845-.4218-.41203-.0687-.05886-.1275-.12753-.1962-.18639-.2158-.1864-.4415-.35317-.6769-.51994 0 0 0 0-.0098 0-.412-.2845-.8633-.519944-1.3244-.716148-.3139-.127532-.6377-.235444-.9614-.323736-.0785-.019621-.1668-.039241-.2453-.068672-.0882-.01962-.1667-.049051-.255-.068671-.5101-.0981018-1.0399-.156963-1.5795-.156963h-48.32498c-.53956 0-1.06931.0588612-1.57944.156963-.08829.01962-.16677.049051-.25506.068671-.07848.019621-.16677.039241-.24526.058862-.33354.088291-.65728.196204-.9614.323736-.47088.196204-.91234.441458-1.32437.716148 0 0 0 0-.00981 0-.23545.17658-.46108.35316-.67691.52975-.06867.05886-.13734.11772-.1962.18639-.15696.12753-.2943.26488-.43165.41203-.06867.07848-.13734.14715-.20601.22563-.04905.05886-.0981.10792-.14715.16678-.09811.11772-.1864.23544-.27469.35316-.02943.04905-.05886.07849-.08829.12754-.15696.22563-.30412.46108-.441461.70633-.02943.05886-.058861.11772-.098102.17658-.098101.20602-.196203.40222-.284495.61805-.029431.06867-.058861.12753-.078482.1962-.098102.26487-.186393.52975-.264875.80444-.00981.04905-.01962.0981-.029431.14715-.058861.23544-.098101.47089-.1373423.71614-.0098101.07848-.0196203.15697-.0294305.23545-.0392408.2943-.0588612.58861-.0588612.89273v11.41907 8.113 10.8403c0 4.3165 3.50224 7.8187 7.81872 7.8187h16.18678 2.7567 10.4479 2.7566 16.1869c4.3164 0 7.8187-3.5022 7.8187-7.8187v-10.8403-8.113-11.41907c-.0098-.30412-.0393-.59843-.0687-.89273zm-3.7965 31.2651c0 2.1877-1.7757 3.9633-3.9634 3.9633h-15.657-3.4042-8.3092l6.8181-11.8311c.2943-.5199-.3728-1.0399-.8045-.618l-12.3117 12.0959c-.108.0981-.1374.2257-.1374.3532h-7.7697l28.9499-24.8786.2551.3826 2.0699 3.1098c.569.8633 1.8542.7946 2.3349-.1177l5.4054-10.2713c.5003-.9516-.2551-2.08959-1.3244-1.99148l-11.5564 1.03988c-1.0301.08829-1.5794 1.2557-1.0105 2.1092l2.0209 3.0313-37.8673 19.0612v-4.4538l24.447-10.2909c.6082-.255.3335-1.1674-.3139-1.0399l-24.1331 4.6305v-3.3551-11.30137c0-.24526.02943-.4807.06867-.71615.00981-.05886.01962-.11772.02943-.17658.02943-.08829.04905-.16678.07848-.24526.01962-.07848.04905-.15696.07848-.22563.01962-.07848.04905-.14715.08829-.22564.02943-.06867.05886-.14715.09811-.21582.03924-.06867.07848-.13734.11772-.20601.03924-.06868.07848-.13735.12753-.20602s.08829-.12753.13734-.1962c.04905-.05886.0981-.12754.14716-.1864.04905-.05886.10791-.11772.16677-.17658s.10791-.10791.16677-.16677c.05886-.04905.11772-.10792.1864-.15697.05886-.04905.12753-.0981.18639-.14715.05886-.02943.11772-.05886.17658-.0981.0981-.05886.19621-.11772.29431-.16677.05886-.02943.11772-.05887.17658-.0883.07848-.03924.14716-.06867.22564-.0981.15696-.05886.32373-.11772.49051-.15696.06867-.00981.13734-.02943.20601-.03924.23545-.03924.47089-.06867.71614-.06867h48.33479c.2453 0 .4906.02943.7162.06867.0687.00981.1373.02943.206.04905.1668.03924.3335.08829.4905.15696.0785.02943.1472.05886.2256.08829.0589.02943.1178.05887.1766.0883.0981.04905.206.10791.2943.16677.0589.03924.1178.07848.1766.11772.0687.04905.1275.0981.1864.14715s.1275.09811.1864.15697c.0589.04905.1177.10791.1668.16677.0588.05886.1079.11772.1667.17658.0491.05887.0982.11773.1472.1864.0491.05886.0981.12753.1373.1962.0491.06867.0883.13734.1276.20602.0392.06867.0785.13734.1177.20601s.0687.14715.0981.21582c.0294.07849.0687.14716.0883.22564.0294.07848.049.14715.0785.22563.0196.07848.049.15697.0686.23545.0099.05886.0197.11772.0295.17658.0392.23545.0686.47089.0686.71615v11.31116 8.2209 10.8305z" fill="#fff"/></g></svg>