<svg width="177" height="37" viewBox="0 0 177 37" fill="none" xmlns="http://www.w3.org/2000/svg">
<g clip-path="url(#clip0)">
<path d="M17.9316 0V34.5209L25.7433 37V8.04551C25.7433 6.689 26.3514 5.78466 27.3181 6.0965C28.5966 6.45512 28.8461 7.70249 28.8461 9.059V20.6283C33.7108 22.9827 37.5465 20.6283 37.5465 14.4227C37.5465 8.0611 35.3012 5.23894 28.6902 2.96249C26.0863 2.07375 21.2528 0.608091 17.9316 0Z" fill="white"/>
<path d="M27.2227 31.9486L39.7899 27.4737C41.2087 26.9592 41.427 26.2419 40.2732 25.8677C39.1194 25.4935 37.0145 25.6027 35.5956 26.1016L27.2227 29.0485V24.3553L27.706 24.1994C27.706 24.1994 30.1228 23.3418 33.5219 22.9676C36.9209 22.5934 41.084 23.0144 44.3584 24.2618C48.0381 25.4312 48.4591 27.1463 47.5235 28.3157C46.588 29.5007 44.296 30.3427 44.296 30.3427L27.2227 36.4703V31.9486Z" fill="white"/>
<path d="M3.60157 31.4815C-0.187303 30.4213 -0.810986 28.2072 0.904142 26.9286C2.49453 25.7436 5.20756 24.8549 5.20756 24.8549L16.4027 20.8789V25.4162L8.34156 28.3007C6.92268 28.8153 6.70439 29.5325 7.85821 29.9067C9.01202 30.2809 11.117 30.1718 12.5358 29.6728L16.4027 28.2696V32.3235C16.1532 32.3703 15.8881 32.4015 15.6387 32.4482C11.7718 33.0719 7.65551 32.8068 3.60157 31.4815Z" fill="white"/>
<path d="M43.5169 35.0977C43.5169 34.6923 43.6728 34.3181 43.9535 34.0219C44.2342 33.7256 44.624 33.5697 45.0294 33.5697C45.4347 33.5697 45.809 33.7256 46.1052 34.0219C46.4015 34.3025 46.5418 34.6923 46.5418 35.0977C46.5418 35.9397 45.8557 36.6257 45.0294 36.6257C44.624 36.6257 44.2342 36.4698 43.9535 36.1736C43.6728 35.8929 43.5169 35.5031 43.5169 35.0977ZM45.0294 36.9376C45.5127 36.9376 45.9805 36.7505 46.3235 36.4074C46.6665 36.0644 46.8536 35.5967 46.8536 35.1133C46.8536 34.6299 46.6665 34.1778 46.3235 33.8192C45.9805 33.4605 45.5127 33.2734 45.0294 33.2734C44.0159 33.2734 43.2051 34.0998 43.2051 35.0977C43.2051 35.5811 43.3922 36.0488 43.7352 36.3919C44.0782 36.7349 44.546 36.9376 45.0294 36.9376Z" fill="white"/>
<path d="M45.5285 34.6452C45.5285 34.7544 45.4973 34.8323 45.435 34.8791C45.3726 34.9259 45.279 34.9415 45.1699 34.9415H44.6086V34.3646H45.2011C45.279 34.3646 45.3414 34.3802 45.4038 34.3958C45.4817 34.4425 45.5285 34.5205 45.5285 34.6452ZM45.9339 35.955C45.9027 35.9394 45.8871 35.9082 45.8715 35.8614C45.8715 35.8302 45.8559 35.7835 45.8559 35.7055L45.8404 35.4404C45.8404 35.3157 45.8092 35.2221 45.7624 35.1754C45.7312 35.1442 45.6844 35.0974 45.6377 35.0818C45.7 35.035 45.7468 34.9883 45.7936 34.9259C45.8559 34.8479 45.8715 34.7388 45.8715 34.6141C45.8715 34.3646 45.778 34.2087 45.5753 34.1151C45.4661 34.0683 45.3414 34.0527 45.1855 34.0527H44.2811H44.2344V34.0995V36.0485V36.0953H44.2811H44.5462H44.593V36.0485V35.2533H45.1543C45.2479 35.2533 45.3258 35.2689 45.3726 35.2845C45.435 35.3157 45.4817 35.3937 45.4817 35.5028L45.4973 35.8302C45.4973 35.9082 45.5129 35.955 45.5129 35.9862C45.5129 36.0173 45.5285 36.0485 45.5441 36.0641L45.5597 36.0953H45.5909H45.9183H45.9651V36.0485V36.0018V35.9706L45.9339 35.955Z" fill="white"/>
<path d="M135.043 8.76367H120.137C115.818 8.76367 113.698 11.4299 113.698 14.8914V25.4316C113.698 27.5833 112.684 29.1269 110.533 29.1269H96.5153C96.4217 29.1269 96.3594 29.2049 96.3594 29.2828V31.4034C96.3594 31.4969 96.4373 31.5593 96.5153 31.5593H112.139C116.458 31.5593 118.578 28.893 118.578 25.4316V14.8914C118.578 12.7397 119.592 11.196 121.743 11.196H135.028C135.121 11.196 135.184 11.1181 135.184 11.0401V8.91959C135.199 8.82604 135.137 8.76367 135.043 8.76367Z" fill="white"/>
<path d="M90.9955 8.76172H64.0212C63.9276 8.76172 63.8652 8.83968 63.8652 8.91764V11.0382C63.8652 11.1317 63.9432 11.1941 64.0212 11.1941H89.3739C91.5256 11.1941 92.5391 12.7377 92.5391 14.8894C92.5391 17.0411 91.5256 18.5847 89.3739 18.5847H69.3225C66.204 18.5847 63.8652 21.2042 63.8652 24.6656V31.4014C63.8652 31.495 63.9432 31.5573 64.0212 31.5573H68.6052C68.6988 31.5573 68.7611 31.4794 68.7611 31.4014V24.6656C68.7611 22.5139 69.9929 21.0171 71.7704 21.0171H90.9955C95.3145 21.0171 97.435 18.3664 97.435 14.8894C97.435 11.4124 95.33 8.76172 90.9955 8.76172Z" fill="white"/>
<path d="M170.436 26.6945H165.868C165.774 26.6945 165.696 26.6165 165.696 26.5385V11.1803C165.696 8.82593 164.059 8.04632 161.767 9.4652L134.294 26.3514C133.218 27.0219 132.86 27.7703 133.109 28.316C133.327 28.7994 133.92 29.1268 135.12 29.1268H160.645C160.723 29.1268 160.769 29.1892 160.785 29.2516V31.4033C160.785 31.4968 160.863 31.5748 160.941 31.5748H165.525C165.619 31.5748 165.681 31.4968 165.681 31.4033V29.2983C165.681 29.2048 165.759 29.1268 165.837 29.1268H170.405C170.499 29.1268 170.577 29.0489 170.577 28.9709V26.8504C170.592 26.7724 170.53 26.6945 170.436 26.6945ZM160.801 26.5229C160.801 26.6165 160.723 26.6945 160.645 26.6945H139.237C139.065 26.6945 138.972 26.6477 138.94 26.5853C138.909 26.4918 138.972 26.4138 139.096 26.3202L160.395 13.2073C160.536 13.1137 160.785 13.1293 160.785 13.4256V26.5229H160.801Z" fill="white"/>
<path d="M172.761 29.7813C172.761 29.3759 172.917 29.0017 173.198 28.7054C173.478 28.4092 173.868 28.2532 174.274 28.2532C174.679 28.2532 175.053 28.4092 175.349 28.7054C175.646 28.9861 175.786 29.3759 175.786 29.7813C175.786 30.6232 175.1 31.3093 174.274 31.3093C173.868 31.3093 173.478 31.1534 173.198 30.8571C172.917 30.5609 172.761 30.1867 172.761 29.7813ZM174.289 31.6055C174.772 31.6055 175.24 31.4184 175.583 31.0754C175.926 30.7324 176.113 30.2646 176.113 29.7813C176.113 29.2979 175.926 28.8457 175.583 28.4871C175.24 28.1285 174.772 27.9414 174.289 27.9414C173.276 27.9414 172.465 28.7678 172.465 29.7657C172.465 30.249 172.652 30.7168 172.995 31.0598C173.338 31.4184 173.79 31.6055 174.289 31.6055Z" fill="white"/>
<path d="M174.773 29.3132C174.773 29.4223 174.741 29.5003 174.679 29.5471C174.617 29.5939 174.523 29.6095 174.414 29.6095H173.853V29.0325H174.445C174.523 29.0325 174.586 29.0481 174.648 29.0637C174.741 29.1105 174.773 29.1885 174.773 29.3132ZM175.178 30.6229C175.147 30.6073 175.131 30.5762 175.116 30.5294C175.116 30.4982 175.1 30.4514 175.1 30.3735L175.084 30.1084C175.084 29.9837 175.053 29.8901 175.007 29.8433C174.975 29.8121 174.929 29.7654 174.882 29.7498C174.944 29.703 174.991 29.6562 175.038 29.5939C175.1 29.5159 175.116 29.4068 175.116 29.282C175.116 29.0325 175.022 28.8766 174.819 28.7831C174.71 28.7363 174.586 28.7207 174.43 28.7207H173.525H173.479V28.7675V30.7165V30.7633H173.525H173.79H173.837V30.7165V29.9213H174.398C174.492 29.9213 174.57 29.9369 174.617 29.9525C174.679 29.9837 174.726 30.0616 174.726 30.1708L174.741 30.4982C174.741 30.5762 174.757 30.6229 174.757 30.6541C174.757 30.6853 174.773 30.7165 174.788 30.7321L174.804 30.7633H174.835H175.162H175.209V30.7165V30.6697V30.6385L175.178 30.6229Z" fill="white"/>
</g>
<defs>
<clipPath id="clip0">
<rect width="176.113" height="37" fill="white"/>
</clipPath>
</defs>
</svg>
