<svg xmlns="http://www.w3.org/2000/svg" viewBox="0 0 64 64" role="img" fill="#fff">
    <path fill="#000" fill-opacity=".2" d="M32 11.007c-11.576 0-20.992 9.416-20.992 20.994 0 11.575 9.416 20.992 20.992 20.992 11.574 0 20.992-9.417 20.992-20.992 0-11.578-9.418-20.994-20.992-20.994"></path>
    <path d="M32 8.72c12.836 0 23.28 10.443 23.28 23.28 0 12.837-10.444 23.28-23.28 23.28C19.161 55.28 8.72 44.837 8.72 32 8.72 19.164 19.161 8.72 32 8.72zm0 2.287c-11.576 0-20.992 9.416-20.992 20.994 0 11.575 9.416 20.992 20.992 20.992 11.574 0 20.992-9.417 20.992-20.992 0-11.578-9.418-20.994-20.992-20.994zm-7.425 12.879l19.134 8.129-19.134 8.126V23.886z"></path>
</svg>