<svg width="510" height="112" xmlns="http://www.w3.org/2000/svg">
 <g>
  <title>Layer 1</title>
  <path d="m158.595,17.705a20.285,20.285 0 0 0 -14.32,-14.32c-12.633,-3.385 -63.285,-3.385 -63.285,-3.385s-50.653,0 -63.285,3.385a20.286,20.286 0 0 0 -14.32,14.32c-3.385,12.633 -3.385,38.988 -3.385,38.988s0,26.356 3.385,38.987a20.285,20.285 0 0 0 14.32,14.32c12.632,3.386 63.285,3.386 63.285,3.386s50.652,0 63.285,-3.386a20.284,20.284 0 0 0 14.32,-14.32c3.385,-12.632 3.385,-38.988 3.385,-38.988s0,-26.355 -3.385,-38.988" fill="red" id="svg_1"/>
  <path d="m64.792,80.99l42.082,-24.297l-42.082,-24.297l0,48.594zm188.276,11.04c0.887,-2.314 1.332,-6.098 1.332,-11.35l0,-22.124c0,-5.097 -0.445,-8.822 -1.332,-11.178c-0.888,-2.355 -2.452,-3.533 -4.69,-3.533c-2.163,0 -3.69,1.178 -4.577,3.533c-0.888,2.356 -1.332,6.081 -1.332,11.178l0,22.124c0,5.25 0.424,9.035 1.275,11.35c0.848,2.318 2.392,3.475 4.633,3.475c2.239,0 3.803,-1.157 4.691,-3.475zm-17.953,11.122c-3.207,-2.16 -5.486,-5.52 -6.835,-10.079c-1.352,-4.554 -2.027,-10.617 -2.027,-18.185l0,-10.31c0,-7.644 0.771,-13.784 2.316,-18.417c1.544,-4.633 3.956,-8.011 7.24,-10.135c3.282,-2.123 7.587,-3.186 12.916,-3.186c5.251,0 9.459,1.082 12.626,3.243c3.165,2.162 5.482,5.542 6.95,10.136c1.466,4.595 2.2,10.715 2.2,18.36l0,10.31c0,7.567 -0.714,13.65 -2.142,18.243c-1.43,4.595 -3.747,7.955 -6.951,10.077c-3.205,2.124 -7.548,3.186 -13.03,3.186c-5.64,0 -10.06,-1.082 -13.263,-3.243m248.053,-57.981c-0.81,1.005 -1.352,2.646 -1.621,4.923c-0.272,2.278 -0.404,5.734 -0.404,10.367l0,5.097l11.697,0l0,-5.098c0,-4.555 -0.155,-8.011 -0.463,-10.367c-0.309,-2.355 -0.868,-4.014 -1.678,-4.98c-0.812,-0.966 -2.067,-1.449 -3.766,-1.449c-1.7,0 -2.954,0.503 -3.765,1.506l0,0.001zm-2.025,29.886l0,3.591c0,4.557 0.132,7.974 0.404,10.251c0.269,2.279 0.828,3.94 1.68,4.982c0.849,1.041 2.16,1.564 3.938,1.564c2.392,0 4.035,-0.927 4.923,-2.781c0.887,-1.853 1.37,-4.942 1.447,-9.268l13.785,0.812c0.077,0.62 0.116,1.469 0.116,2.548c0,6.565 -1.795,11.47 -5.387,14.712c-3.589,3.242 -8.669,4.865 -15.232,4.865c-7.876,0 -13.398,-2.47 -16.564,-7.414c-3.168,-4.94 -4.75,-12.586 -4.75,-22.935l0,-12.395c0,-10.657 1.641,-18.436 4.924,-23.342c3.281,-4.903 8.9,-7.355 16.854,-7.355c5.482,0 9.691,1.004 12.626,3.012c2.933,2.01 5,5.137 6.197,9.383c1.197,4.247 1.796,10.117 1.796,17.607l0,12.163l-26.757,0m-284.953,-1.33l-18.187,-65.68l15.869,0l6.37,29.77c1.623,7.339 2.82,13.594 3.591,18.766l0.464,0c0.54,-3.706 1.738,-9.922 3.591,-18.65l6.603,-29.886l15.869,0l-18.417,65.68l0,31.51l-15.754,0l0,-31.51m125.926,-39.497l0,71.007l-12.511,0l-1.39,-8.688l-0.347,0c-3.399,6.564 -8.496,9.845 -15.291,9.845c-4.71,0 -8.185,-1.543 -10.425,-4.633c-2.24,-3.087 -3.359,-7.915 -3.359,-14.48l0,-53.051l15.985,0l0,52.126c0,3.168 0.348,5.426 1.043,6.776c0.695,1.353 1.853,2.027 3.475,2.027c1.39,0 2.722,-0.423 3.996,-1.275c1.274,-0.849 2.22,-1.928 2.838,-3.241l0,-56.414l15.986,0m81.995,0.001l0,71.007l-12.511,0l-1.391,-8.688l-0.345,0c-3.402,6.564 -8.498,9.845 -15.292,9.845c-4.711,0 -8.186,-1.543 -10.426,-4.633c-2.24,-3.087 -3.358,-7.915 -3.358,-14.48l0,-53.051l15.985,0l0,52.126c0,3.168 0.347,5.426 1.041,6.776c0.696,1.353 1.855,2.027 3.476,2.027c1.391,0 2.723,-0.423 3.996,-1.275c1.275,-0.849 2.22,-1.928 2.839,-3.241l0,-56.414l15.985,0" fill="#fff" id="svg_2"/>
  <path d="m365.552,20.908l-15.87,0l0,84.329l-15.637,0l0,-84.33l-15.869,0l0,-12.857l47.376,0l0,12.858m76.811,53.636c0,5.174 -0.215,9.229 -0.639,12.162c-0.424,2.937 -1.139,5.021 -2.143,6.255c-1.004,1.236 -2.357,1.854 -4.053,1.854a7.404,7.404 0 0 1 -3.65,-0.927c-1.12,-0.618 -2.026,-1.544 -2.722,-2.78l0,-40.312c0.54,-1.93 1.467,-3.513 2.78,-4.749c1.313,-1.234 2.74,-1.853 4.285,-1.853c1.623,0 2.876,0.637 3.766,1.91c0.886,1.275 1.505,3.418 1.853,6.43c0.348,3.011 0.523,7.297 0.523,12.857l0,9.153zm14.652,-28.964c-0.967,-4.478 -2.531,-7.721 -4.692,-9.73c-2.163,-2.007 -5.136,-3.011 -8.919,-3.011c-2.935,0 -5.676,0.83 -8.224,2.49a16.926,16.926 0 0 0 -5.908,6.545l-0.117,0l0.001,-37.416l-15.405,0l0,100.777l13.204,0l1.622,-6.717l0.347,0c1.235,2.393 3.088,4.285 5.56,5.675c2.47,1.39 5.213,2.085 8.225,2.085c5.404,0 9.382,-2.491 11.931,-7.471c2.548,-4.982 3.823,-12.76 3.823,-23.341l0,-11.236c0,-7.953 -0.484,-14.17 -1.448,-18.65" fill="#fff" id="svg_3"/>
 </g>

</svg>